<?xml version="1.0" encoding="UTF-8" standalone="no"?>
<svg
   xmlns:dc="http://purl.org/dc/elements/1.1/"
   xmlns:cc="http://creativecommons.org/ns#"
   xmlns:rdf="http://www.w3.org/1999/02/22-rdf-syntax-ns#"
   xmlns:svg="http://www.w3.org/2000/svg"
   xmlns="http://www.w3.org/2000/svg"
   viewBox="0 0 3917.2 433.06668"
   height="433.06668"
   width="3917.2"
   xml:space="preserve"
   id="svg2"
   version="1.1"><metadata
     id="metadata8"><rdf:RDF><cc:Work
         rdf:about=""><dc:format>image/svg+xml</dc:format><dc:type
           rdf:resource="http://purl.org/dc/dcmitype/StillImage" /></cc:Work></rdf:RDF></metadata><defs
     id="defs6" /><g
     transform="matrix(1.3333333,0,0,-1.3333333,0,433.06667)"
     id="g10"><g
       transform="scale(0.1)"
       id="g12"><g
         transform="scale(1.80239)"
         id="g14"><path
           id="path16"
           style="fill:#374ea9;fill-opacity:1;fill-rule:nonzero;stroke:none"
           d="m 15689.1,1263.32 c -38.8,0 -73.2,-7.77 -103.7,-23.86 -30.5,-16.09 -54.4,-39.94 -72.1,-71.57 -17.8,-32.18 -26.1,-71.57 -26.1,-118.17 0,-69.911 18.9,-122.619 56,-158.127 37.2,-35.509 86,-53.263 145.9,-53.263 60.5,0 109.3,17.754 147.1,53.817 37.7,36.064 56.6,88.771 56.6,158.683 0,47.15 -8.9,86.55 -26.7,118.17 -17.7,31.63 -42.1,55.48 -72.6,71.02 -30,15.53 -65,23.3 -104.4,23.3 z m -1931.8,123.73 V 812.808 c 0,-154.794 55.5,-230.249 167,-230.249 140.9,0 244.1,109.299 244.1,324.014 v 0 480.477 h 226.4 V 413.894 h -222.5 v 218.599 c -51.6,-139.26 -164.8,-240.237 -329.6,-240.237 -204.7,0 -309.6,143.143 -309.6,365.625 v 0 629.169 z M 15881.7,360.632 h -336.8 -3.3 c -40,-0.555 -72.2,-8.877 -95.5,-25.522 -24.4,-17.199 -36.6,-40.502 -37.7,-70.462 -0.5,-38.837 22.8,-67.688 68.8,-86.551 46.6,-18.864 115.4,-28.296 207.5,-28.296 113.7,0 197,10.541 249.1,31.625 52.7,21.083 78.8,52.152 78.8,93.209 0,30.515 -11.1,52.708 -32.7,66.023 -21.7,13.316 -55,19.974 -98.2,19.974 z m 403.9,1090.768 14.4,-181.98 h -32.2 -2.8 c -42.1,-0.55 -77.6,-14.98 -107,-42.72 -30,-28.29 -45,-72.12 -45,-131.49 v 0 -44.94 -4.44 c -0.5,-68.241 -17.7,-129.825 -51,-183.643 -33.9,-55.482 -82.7,-98.757 -145.9,-129.827 -63.3,-31.625 -136.5,-47.16 -219.7,-47.16 v 0 h -5 c -64.4,0.555 -123.2,11.097 -178.1,31.625 v 0 l -3.9,1.664 -3.3,-1.109 c -17.2,-6.658 -32.8,-15.535 -45.5,-26.631 -18.9,-16.09 -28.3,-36.618 -28.3,-61.03 0,-27.187 10.5,-47.16 32.1,-60.476 21.7,-13.315 52.2,-19.973 92.7,-19.973 v 0 h 370.1 4.4 c 88.2,-0.555 156.5,-20.528 204.7,-60.475 49.4,-40.502 73.8,-97.093 73.8,-170.329 0,-102.642 -43.3,-181.426 -130.4,-236.3529 C 15993.2,27.1861 15858.4,0 15676.4,0 c -142,0 -251.3,19.4186 -327.9,57.7011 -76.6,38.2824 -114.3,92.0999 -114.3,159.7879 0,43.83 15,79.339 44.4,105.97 29.4,27.186 68.8,46.605 117.6,58.811 -42.2,11.651 -75.5,32.734 -100.4,63.804 -25,30.515 -37.2,69.907 -37.2,117.621 0,53.263 18.9,98.758 56.6,136.485 v 0 l 2.8,2.775 c 29.4,28.295 64.3,49.378 104.3,62.139 v 0 h -0.6 c -35.5,25.522 -64.9,56.037 -88.7,92.1 -36.7,55.482 -54.4,119.286 -54.4,191.966 0,68.24 17.7,130.38 52.7,186.42 34.9,56.04 84.9,99.87 148.1,132.05 63.8,32.18 137.1,48.27 219.2,48.27 85.4,0 160.9,-17.2 226.3,-51.6 65,-34.4 112.7,-82.67 142.1,-144.81 6.1,74.9 28.3,131.49 66,170.88 37.7,39.4 88.8,59.37 152.6,61.03 z M 12911.7,558.702 c -154.8,0 -250.2,137.04 -250.2,341.768 0,214.71 97.1,341.77 248.6,341.77 151.4,0 244.1,-120.95 244.1,-339.551 0,-224.701 -91.6,-343.987 -242.5,-343.987 z m 75.5,-168.665 c 228.6,0 397.2,188.638 397.2,516.536 0,315.687 -164.7,504.327 -397.2,504.327 -164.8,0 -271.9,-91.54 -321.8,-210.27 v 581.45 H 12439 V 413.339 h 222.5 v 186.974 c 51.6,-118.731 163.1,-210.276 325.7,-210.276 z m -751.8,23.857 V 1387.05 H 12009 V 413.894 h 226.4 z m -614.7,597.536 h -465 c 16.1,150.91 103.2,238.58 238.6,238.58 130.9,0 218.6,-79.34 226.4,-238.58 z m -218.6,-619.728 c 236.3,0 381.1,129.272 441,281.847 l -186.9,77.675 C 11612.3,635.822 11533,564.25 11409.8,564.25 c -170.9,0 -254.1,119.286 -260.2,291.834 h 697.4 v 39.947 c 0,317.909 -163.1,520.419 -451,520.419 -266.3,0 -468.9,-188.64 -468.9,-512.651 0.6,-309.034 169.3,-512.097 475,-512.097 z m -1478.62,22.192 v 802.266 h 232.42 v 170.89 h -232.42 v 93.2 c 0,95.43 39.94,140.93 140.92,140.93 26.1,0 55.5,-2.22 89.3,-9.99 v 170.89 c -39.9,9.98 -89.3,19.97 -143.1,19.97 -182.55,0 -305.72,-89.33 -305.72,-294.05 V 1387.05 H 9177.8 v -170.89 h 527.08 V 413.894 Z M 8909.82,393.921 c 71.58,0 134.82,17.754 170.89,35.508 v 167 c -39.95,-11.651 -71.57,-17.754 -110.97,-17.754 -97.09,0 -143.14,37.728 -143.14,143.143 v 494.342 h 244.12 v 170.89 h -246.34 v 290.17 H 8608 V 1387.05 H 8393.29 V 1216.16 H 8608 V 691.858 c 0,-200.844 105.42,-297.937 301.82,-297.937 z M 7817.94,552.599 c -105.41,0 -168.66,55.482 -168.66,147.027 0,134.82 115.4,184.754 300.15,188.638 37.73,0 71.57,-2.22 103.2,-3.884 v -69.352 c -0.56,-164.781 -93.76,-262.429 -234.69,-262.429 z m -73.79,-166.446 c 164.78,0 277.96,87.662 327.9,210.276 7.77,-127.053 81.56,-200.844 216.38,-200.844 49.93,0 101.53,11.651 133.15,31.625 v 144.807 c -21.63,-9.986 -43.83,-11.651 -63.8,-11.651 -59.37,0 -87.66,26.077 -87.66,110.964 v 365.62 c 0,246.34 -148.69,379.5 -418.89,379.5 -234.13,0 -401.13,-119.29 -411.12,-294.05 l 212.5,-35.51 v 17.75 c 7.76,101.53 83.22,157.02 198.62,157.02 140.92,0 200.84,-67.69 200.84,-190.86 v -53.82 c -47.71,3.89 -97.09,7.77 -157.01,7.77 -260.21,-3.88 -468.82,-93.21 -468.82,-341.769 0,-189.748 133.16,-296.828 317.91,-296.828 z m -597.54,7.768 c 71.57,0 134.82,17.754 170.89,35.508 v 167 c -39.95,-11.651 -71.58,-17.754 -110.97,-17.754 -97.09,0 -143.14,37.728 -143.14,143.143 v 494.342 h 244.12 v 170.89 h -246.34 v 290.17 h -216.38 v -290.17 h -214.71 v -170.89 h 214.71 V 691.858 c -0.55,-200.844 104.86,-297.937 301.82,-297.937 z m -629.72,19.973 V 1387.05 H 6290.53 V 413.894 h 226.36 z m -796.72,-27.741 c 246.34,0 405.02,117.067 405.02,309.589 0,137.04 -79.34,238.572 -267.98,287.95 l -168.66,45.498 c -107.08,29.96 -153.13,57.7 -153.13,125.39 0,63.8 57.7,109.3 167,109.3 125.39,0 186.97,-77.68 204.73,-157.02 l 192.52,51.6 c -41.61,160.9 -190.86,257.99 -387.26,257.99 -222.49,0 -379.5,-110.96 -379.5,-287.95 0,-139.259 89.33,-238.572 264.09,-281.848 l 158.68,-43.83 c 119.29,-31.625 157.02,-63.804 157.02,-134.821 0,-71.017 -63.81,-127.053 -188.64,-127.053 -129.27,0 -214.72,81.558 -234.14,188.638 L 5291.3,674.104 c 33.84,-169.22 188.64,-287.951 428.87,-287.951 z m 9104.53,27.741 v 413.34 c 0,250.226 129.3,357.306 327.9,357.306 11.7,0 21.7,0 31.1,-0.56 0,0 9.4,76.57 28.3,229.14 -17.2,1.11 -30.5,2.22 -39.9,2.22 -177,0 -294.1,-115.4 -351.8,-294.05 V 1387.6 H 14600 V 414.449 h 224.7 v -0.555 z m -4310.9,0 v 413.34 c 0,250.226 129.3,357.306 327.9,357.306 11.7,0 21.6,0 31.1,-0.56 0,0 9.4,76.57 28.3,229.14 -17.2,1.11 -30.5,2.22 -40,2.22 -177,0 -294,-115.4 -351.7,-294.05 v 266.31 h -220.3 V 414.449 h 224.7 z m -5653.59,0 v 413.34 c 0,250.226 129.27,357.306 327.89,357.306 11.66,0 21.64,0 31.07,-0.56 0,0 9.44,76.57 28.3,229.14 -17.2,1.11 -30.52,2.22 -39.95,2.22 -176.98,0 -294.05,-115.4 -351.75,-294.05 V 1387.6 H 4635.51 V 414.449 h 224.7 z m -623.62,597.536 h -464.94 c 16.09,150.91 103.2,238.58 238.58,238.58 130.93,0 218.59,-79.34 226.36,-238.58 z m -218.6,-619.728 c 236.36,0 381.16,129.272 441.08,281.847 L 4272.1,751.224 C 4228.27,635.822 4148.93,564.25 4025.76,564.25 c -170.88,0 -254.11,119.286 -260.21,291.834 h 697.41 v 39.947 c 0,317.909 -163.12,520.419 -451.07,520.419 -266.31,0 -468.82,-188.64 -468.82,-512.651 0.55,-309.034 169.22,-512.097 474.92,-512.097 z m -891.59,22.192 377.28,973.156 H 3277.31 L 3017.1,636.376 2764.66,1387.05 H 2516.1 l 373.39,-973.156 h 236.91 z m -736.24,0 V 1387.05 H 2163.79 V 413.894 h 226.37 z m -1081.34,0 V 900.47 c 0,198.62 101.53,317.91 244.12,317.91 123.17,0 182.53,-77.67 182.53,-234.133 V 414.449 h 228.59 v 624.721 c 0,220.27 -115.41,369.51 -327.9,369.51 -168.67,0 -284.07,-105.41 -333.45,-250.22 v 228.59 H 1082.45 V 413.894 h 226.37 z M 309.588,391.702 c 164.781,0 277.964,101.531 329.562,240.236 V 413.339 H 861.632 V 1387.05 H 635.267 V 906.573 c 0,-214.715 -103.196,-324.014 -244.12,-324.014 -110.964,0 -167,75.455 -167,230.249 V 1387.05 H 0 V 757.327 C 0,534.845 105.415,391.702 309.588,391.702" /></g><path
         id="path18"
         style="fill:#374ea9;fill-opacity:1;fill-rule:nonzero;stroke:none"
         d="m 13801,2787 c 129,0 218,97 218,222 0,122 -89,218 -218,218 -125,0 -218,-97 -218,-218 -1,-125 92,-222 218,-222" /><path
         id="path20"
         style="fill:#374ea9;fill-opacity:1;fill-rule:nonzero;stroke:none"
         d="m 14471,2787 c 129,0 218,97 218,222 0,122 -89,218 -218,218 -125,0 -218,-97 -218,-218 -1,-125 92,-222 218,-222" /><path
         id="path22"
         style="fill:#374ea9;fill-opacity:1;fill-rule:nonzero;stroke:none"
         d="m 11541,2787 c 129,0 218,97 218,222 0,122 -89,218 -218,218 -125,0 -218,-97 -218,-218 -1,-125 92,-222 218,-222" /><g
         transform="scale(1.35331)"
         id="g24"><path
           id="path26"
           style="fill:#374ea9;fill-opacity:1;fill-rule:nonzero;stroke:none"
           d="m 16138.9,2059.39 c 95.3,0 161.1,71.68 161.1,164.04 0,90.15 -66.5,161.09 -161.1,161.09 -92.4,0 -161.1,-71.68 -161.1,-161.09 -0.7,-92.36 68,-164.04 161.1,-164.04" /></g><path
         id="path28"
         style="fill:#374ea9;fill-opacity:1;fill-rule:nonzero;stroke:none"
         d="m 4101,2787 c 129,0 218,97 218,222 0,122 -90,218 -218,218 -125,0 -218,-97 -218,-218 -1,-125 92,-222 218,-222" /></g></g></svg>