<?xml version="1.0" encoding="UTF-8"?><svg id="Ebene_1" xmlns="http://www.w3.org/2000/svg" viewBox="0 0 130.31 38.25"><path d="m34.1,24.57h1.03c-1.39,2.81-5.09,4.69-9.29,4.69-7.37,0-12.55-5.05-12.55-11.62s5.18-11.62,11.66-11.62,10.86,4.78,10.86,11.04h-17.02v.04c0,7.1,3.13,11.04,8.35,11.04,2.95,0,5.67-1.39,6.97-3.57Zm-15.32-8.4h11.88c-.13-5.67-2.32-9.25-5.72-9.25s-5.9,3.75-6.17,9.25Z"/><path d="m73.82,13.53v15.28h-5.32V12.28c0-2.55-1.74-4.42-4.07-4.42s-4.74,1.97-5.76,4.65c.04.36.04.67.04,1.03v15.28h-5.32V12.28c0-2.55-1.74-4.42-4.11-4.42s-4.65,1.83-5.72,4.38v16.58h-5.32V7.32l5.32-1.07v4.24c1.47-2.64,4.42-4.47,7.64-4.47,3.44,0,6.21,2.1,7.15,5.14,1.34-2.99,4.47-5.14,7.95-5.14,4.29,0,7.51,3.22,7.51,7.51Z"/><path d="m96.68,24.57h1.03c-1.38,2.81-5.09,4.69-9.29,4.69-7.37,0-12.55-5.05-12.55-11.62s5.18-11.62,11.66-11.62,10.86,4.78,10.86,11.04h-17.02v.04c0,7.1,3.13,11.04,8.35,11.04,2.95,0,5.67-1.39,6.97-3.57Zm-15.32-8.4h11.88c-.13-5.67-2.32-9.25-5.72-9.25s-5.9,3.75-6.17,9.25Z"/><path d="m99.41,23h.89c0,2.99,3.31,5.27,7.33,5.27,3.35,0,5.63-1.38,5.63-3.48s-2.46-3.31-5.85-4.83c-2.99-1.34-7.68-3.13-7.68-7.51,0-3.89,3.57-6.43,8.71-6.43,4.38,0,7.82,2.5,7.82,5.76h-.94c0-2.68-2.68-4.78-6.3-4.78-3.17,0-5.41,1.43-5.41,3.48,0,2.23,2.5,3.35,5.85,4.78,3.35,1.43,7.64,3.08,7.64,7.42,0,3.89-3.31,6.57-8.85,6.57-4.91,0-8.85-2.73-8.85-6.25Z"/></svg>